STARTFONT 2.1
COMMENT
COMMENT Converted from OpenType font "Daydream.ttf" by "otf2bdf 3.0".
COMMENT
FONT -FreeType-Daydream-Medium-R-Normal--17-120-100-100-P-150-ISO10646-1
SIZE 12 100 100
FONTBOUNDINGBOX 23 23 0 -8
STARTPROPERTIES 19
FOUNDRY "FreeType"
FAMILY_NAME "Daydream"
WEIGHT_NAME "Medium"
SLANT "R"
SETWIDTH_NAME "Normal"
ADD_STYLE_NAME ""
PIXEL_SIZE 17
POINT_SIZE 120
RESOLUTION_X 100
RESOLUTION_Y 100
SPACING "P"
AVERAGE_WIDTH 150
CHARSET_REGISTRY "ISO10646"
CHARSET_ENCODING "1"
FONT_ASCENT 14
FONT_DESCENT 7
COPYRIGHT "-FreeType-Daydream-Medium-R-Normal--17-120-100-100-P-150-ISO10646-1"
_OTF_FONTFILE "Daydream.ttf"
_OTF_PSNAME "Daydream"
ENDPROPERTIES
CHARS 87
STARTCHAR 0020
ENCODING 32
SWIDTH 300 0
DWIDTH 5 0
BBX 0 0 0 0
BITMAP
ENDCHAR
STARTCHAR 0021
ENCODING 33
SWIDTH 480 0
DWIDTH 8 0
BBX 6 23 1 -8
BITMAP
38
38
FC
FC
FC
FC
FC
FC
FC
FC
38
38
38
38
38
00
38
38
FC
FC
FC
38
38
ENDCHAR
STARTCHAR 0022
ENCODING 34
SWIDTH 600 0
DWIDTH 10 0
BBX 8 7 1 8
BITMAP
EF
EF
EF
EF
EF
CC
CC
ENDCHAR
STARTCHAR 0023
ENCODING 35
SWIDTH 1440 0
DWIDTH 24 0
BBX 22 19 1 -6
BITMAP
03E3E0
03E3E0
03E3E0
1FFFFC
7FFFFC
7FFFFC
7FFFF0
0F8780
0F8780
0F8780
0F8780
7FFFF0
7FFFF0
FFFFF0
FFFFE0
FFFFE0
1F1F00
1F1F00
1F1F00
ENDCHAR
STARTCHAR 0024
ENCODING 36
SWIDTH 1020 0
DWIDTH 17 0
BBX 15 23 1 -8
BITMAP
0380
0380
0FF8
3FFE
3FFE
FFFE
FFFE
FB9E
FF80
FF80
3FF8
0FFE
0FFE
03FE
03FE
FB9E
FFFE
FFFE
3FFE
0FF8
0FF8
0380
0380
ENDCHAR
STARTCHAR 0025
ENCODING 37
SWIDTH 1260 0
DWIDTH 21 0
BBX 19 19 1 -6
BITMAP
003800
783E00
783E00
FCFE00
FCF800
FCF800
78F800
78F800
00F800
00F800
03E3C0
03E3C0
03E3C0
03E7E0
0FE7E0
0FE7E0
0F83C0
038000
038000
ENDCHAR
STARTCHAR 0026
ENCODING 38
SWIDTH 1020 0
DWIDTH 17 0
BBX 16 19 1 -6
BITMAP
1F00
7F80
7F80
7B80
7F80
7F80
1F00
7F98
7F98
FFFC
FFFC
FBFC
F8F8
F8F8
FFFC
FFFC
FFFF
FFFF
7F84
ENDCHAR
STARTCHAR 0027
ENCODING 39
SWIDTH 300 0
DWIDTH 5 0
BBX 3 7 1 8
BITMAP
E0
E0
E0
E0
E0
C0
C0
ENDCHAR
STARTCHAR 0028
ENCODING 40
SWIDTH 600 0
DWIDTH 10 0
BBX 8 23 1 -8
BITMAP
07
07
1C
7C
7C
78
F8
F8
F8
F8
F8
F8
F8
F8
F8
F8
78
7C
7C
1C
1C
07
07
ENDCHAR
STARTCHAR 0029
ENCODING 41
SWIDTH 600 0
DWIDTH 10 0
BBX 8 23 1 -8
BITMAP
E0
E0
38
3E
3E
1E
1F
1F
1F
1F
1F
1F
1F
1F
1F
1F
1E
3E
3E
38
38
E0
E0
ENDCHAR
STARTCHAR 002A
ENCODING 42
SWIDTH 900 0
DWIDTH 15 0
BBX 13 12 1 3
BITMAP
0700
0700
2760
2760
FFF8
FFF8
3FE0
1F80
3FE0
3FE0
1880
1880
ENDCHAR
STARTCHAR 002B
ENCODING 43
SWIDTH 1080 0
DWIDTH 18 0
BBX 16 16 1 -5
BITMAP
0380
07E0
07E0
07E0
7FFC
7FFC
FFFF
FFFF
FFFF
7FFC
7FFC
07E0
07E0
07E0
0380
0380
ENDCHAR
STARTCHAR 002C
ENCODING 44
SWIDTH 480 0
DWIDTH 8 0
BBX 6 9 1 -8
BITMAP
38
38
FC
FC
FC
3C
3C
F8
F8
ENDCHAR
STARTCHAR 002D
ENCODING 45
SWIDTH 960 0
DWIDTH 16 0
BBX 14 7 1 0
BITMAP
3FF8
3FF8
FFFC
FFFC
FFFC
3FF8
3FF8
ENDCHAR
STARTCHAR 002E
ENCODING 46
SWIDTH 480 0
DWIDTH 8 0
BBX 6 6 1 -6
BITMAP
38
FC
FC
FC
38
38
ENDCHAR
STARTCHAR 002F
ENCODING 47
SWIDTH 660 0
DWIDTH 11 0
BBX 10 19 0 -6
BITMAP
0700
07C0
1FC0
1FC0
1F00
1F00
1F00
1F00
1F00
1F00
3E00
3E00
3E00
3E00
FE00
FE00
F800
3800
3800
ENDCHAR
STARTCHAR 0030
ENCODING 48
SWIDTH 1080 0
DWIDTH 18 0
BBX 16 19 1 -6
BITMAP
0FF0
0FF0
1FFC
7FFC
7FFF
7E7F
FC3F
FC3F
FC3F
FC3F
FC3F
FE7F
FE7F
FFFF
7FFC
7FFC
7FFC
7FFC
1FF0
ENDCHAR
STARTCHAR 0031
ENCODING 49
SWIDTH 660 0
DWIDTH 11 0
BBX 10 19 0 -6
BITMAP
3F00
FFC0
FFC0
FFC0
3FC0
3FC0
3FC0
0FC0
0FC0
0FC0
0FC0
0FC0
0FC0
0FC0
0FC0
0FC0
0FC0
0700
0700
ENDCHAR
STARTCHAR 0032
ENCODING 50
SWIDTH 960 0
DWIDTH 16 0
BBX 14 19 1 -6
BITMAP
7FE0
FFF0
FFF0
FFF0
FFF0
7BF0
03F0
03F0
0FF0
1FE0
1FE0
7F80
7F70
7F70
FFFC
FFFC
FFFC
FFF0
FFF0
ENDCHAR
STARTCHAR 0033
ENCODING 51
SWIDTH 1020 0
DWIDTH 17 0
BBX 16 19 0 -6
BITMAP
0FF8
3FFC
3FFC
3FFC
3FFC
0EFC
00FC
01F8
01F8
00F8
00FC
0EFF
0EFF
3FFF
FFFF
FFFF
3FFC
3FFC
07F8
ENDCHAR
STARTCHAR 0034
ENCODING 52
SWIDTH 1020 0
DWIDTH 17 0
BBX 15 19 1 -6
BITMAP
1C3C
7F7E
7F7E
7F7E
7C7E
7C7E
FC7E
FFFE
FFFE
FFFC
FFFC
7FFC
0FFC
0FFC
00FC
00FC
00FC
00FC
0070
ENDCHAR
STARTCHAR 0035
ENCODING 53
SWIDTH 960 0
DWIDTH 16 0
BBX 14 19 1 -6
BITMAP
1FF0
3FF0
3FF0
3FE0
3FE0
3C00
3FE0
3FF0
3FF0
03FC
03FC
1CFC
1CFC
3FFC
FFFC
FFFC
FFF0
3FE0
3FE0
ENDCHAR
STARTCHAR 0036
ENCODING 54
SWIDTH 960 0
DWIDTH 16 0
BBX 14 19 1 -6
BITMAP
0F80
1FE0
1FE0
1FE0
1F80
7F80
7FE0
7FE0
FFF0
FFFC
FFFC
F1FC
F1FC
F1FC
FFFC
FFFC
7FF0
7FF0
1FE0
ENDCHAR
STARTCHAR 0037
ENCODING 55
SWIDTH 900 0
DWIDTH 15 0
BBX 14 19 0 -6
BITMAP
3FF8
FFFC
FFFC
FFFC
FFFC
3EFC
00FC
00FC
01F8
01F8
01F8
07F8
07F8
07E0
1FE0
1FE0
1FE0
07C0
07C0
ENDCHAR
STARTCHAR 0038
ENCODING 56
SWIDTH 1080 0
DWIDTH 18 0
BBX 16 19 1 -6
BITMAP
1FF0
7FFC
7FFC
7FFC
7FFC
7C7C
7FFC
7FFC
1FF0
7FFC
7FFC
FC7F
FC7F
FFFF
FFFF
FFFF
FFFF
FFFF
7FFC
ENDCHAR
STARTCHAR 0039
ENCODING 57
SWIDTH 960 0
DWIDTH 16 0
BBX 14 19 1 -6
BITMAP
1FE0
3FF8
3FF8
FFFC
FFFC
FE3C
FE3C
FE3C
FFFC
FFFC
3FFC
1FFC
1FFC
07F8
1FF8
1FF8
1FE0
07C0
07C0
ENDCHAR
STARTCHAR 003A
ENCODING 58
SWIDTH 480 0
DWIDTH 8 0
BBX 6 16 1 -6
BITMAP
38
FC
FC
FC
38
38
38
00
00
00
38
FC
FC
FC
38
38
ENDCHAR
STARTCHAR 003B
ENCODING 59
SWIDTH 480 0
DWIDTH 8 0
BBX 6 18 1 -8
BITMAP
38
FC
FC
FC
38
38
38
00
00
00
38
FC
FC
FC
3C
3C
F8
F8
ENDCHAR
STARTCHAR 003C
ENCODING 60
SWIDTH 660 0
DWIDTH 11 0
BBX 9 15 1 -5
BITMAP
0700
0700
1F80
1F80
7F80
FF00
FF00
FE00
FF00
FF00
7F80
7F80
1F80
0700
0700
ENDCHAR
STARTCHAR 003D
ENCODING 61
SWIDTH 960 0
DWIDTH 16 0
BBX 14 15 1 -5
BITMAP
3FF8
3FF8
FFFC
FFFC
FFFC
3FF8
3FF8
0000
3FF8
3FF8
FFFC
FFFC
FFFC
3FF8
3FF8
ENDCHAR
STARTCHAR 003E
ENCODING 62
SWIDTH 720 0
DWIDTH 12 0
BBX 10 15 1 -5
BITMAP
3800
3800
FC00
FC00
FF00
3FC0
3FC0
1FC0
3FC0
3FC0
FF00
FF00
FC00
3800
3800
ENDCHAR
STARTCHAR 003F
ENCODING 63
SWIDTH 960 0
DWIDTH 16 0
BBX 14 23 1 -8
BITMAP
3FF8
3FF8
FFFC
FFFC
FFFC
FEFC
FEFC
38FC
03FC
03FC
03F8
07E0
07E0
0700
0000
0000
0700
0700
1F80
1F80
1F80
0700
0700
ENDCHAR
STARTCHAR 0040
ENCODING 64
SWIDTH 1260 0
DWIDTH 21 0
BBX 19 19 1 -6
BITMAP
1FFF00
7FFF80
7FFF80
F803E0
E3ECE0
E3ECE0
EFFCE0
EF1CE0
EF1CE0
EF1CE0
EF1CE0
EFFCE0
EFFCE0
E3FFE0
F80F80
F80F80
7F8000
1F8000
1F8000
ENDCHAR
STARTCHAR 0041
ENCODING 65
SWIDTH 1140 0
DWIDTH 19 0
BBX 18 19 0 -6
BITMAP
00FC00
01FF00
01FF00
07FF00
07FF00
1FFFC0
1FFFC0
1FC7C0
3F07C0
3FF7C0
3FF7C0
FFFFC0
FFFFC0
FFFFC0
FE3FC0
FE3FC0
381FC0
381FC0
000700
ENDCHAR
STARTCHAR 0042
ENCODING 66
SWIDTH 1140 0
DWIDTH 19 0
BBX 17 19 1 -6
BITMAP
07E000
1FFC00
1FFC00
1FFE00
1FFE00
7F7E00
7C7E00
7C7E00
7FFC00
7FFC00
FFFE00
FC7F80
FC7F80
FC7F80
FFFF80
FFFF80
FFFF80
FFFF80
7FFC00
ENDCHAR
STARTCHAR 0043
ENCODING 67
SWIDTH 1020 0
DWIDTH 17 0
BBX 15 19 1 -6
BITMAP
03F0
1FFC
1FFC
7FFC
7FF0
7FF0
FFF0
FF00
FC00
FC00
FC00
FF1C
FF1C
7FFE
7FFE
7FFE
1FFE
1FFE
03F0
ENDCHAR
STARTCHAR 0044
ENCODING 68
SWIDTH 1140 0
DWIDTH 19 0
BBX 17 19 1 -6
BITMAP
3FE000
FFFC00
FFFC00
FFFF00
FFFF00
FFFF00
FFFF80
FC7F80
FC1F80
FC1F80
FF7F80
FF7F80
3F7F80
3FFF80
3FFF80
3FFF80
3FFF00
3FFF00
3FFC00
ENDCHAR
STARTCHAR 0045
ENCODING 69
SWIDTH 1080 0
DWIDTH 18 0
BBX 16 19 1 -6
BITMAP
07FC
1FFF
1FFF
1FFF
3FFC
3FFC
3FFC
3F00
3FF8
FFF8
FFF8
FFE0
FFE0
FE00
FFFC
FFFC
FFFC
3FF8
3FF8
ENDCHAR
STARTCHAR 0046
ENCODING 70
SWIDTH 1020 0
DWIDTH 17 0
BBX 15 19 1 -6
BITMAP
1FF0
3FFE
3FFE
3FFE
3FF0
3FF0
FFF0
FF00
FFF0
FFF0
FFF0
FFE0
FFE0
FC00
FC00
FC00
FC00
3800
3800
ENDCHAR
STARTCHAR 0047
ENCODING 71
SWIDTH 1140 0
DWIDTH 19 0
BBX 17 19 1 -6
BITMAP
03FC00
1FFF00
1FFF00
3FFF00
3FFC00
3FFC00
FFFC00
FF0000
FC3F00
FCFF80
FCFF80
FCFF80
FF1F80
FF1F80
3FFF00
3FFF00
3FFF00
3FFF00
07F800
ENDCHAR
STARTCHAR 0048
ENCODING 72
SWIDTH 1140 0
DWIDTH 19 0
BBX 17 19 1 -6
BITMAP
381E00
381E00
FC7E00
FC7F00
FC7F00
FC7F00
FFFF00
FFFF00
FFFF00
FFFF00
FFFF80
FFFF80
FFFF80
FC1F80
FC1F80
FC1F80
FC1F80
FC1F80
380700
ENDCHAR
STARTCHAR 0049
ENCODING 73
SWIDTH 600 0
DWIDTH 10 0
BBX 8 19 1 -6
BITMAP
38
FE
FE
FE
FE
FE
FE
FE
FE
FE
FE
FF
FF
FF
FF
FF
FF
FF
3E
ENDCHAR
STARTCHAR 004A
ENCODING 74
SWIDTH 840 0
DWIDTH 14 0
BBX 13 19 0 -6
BITMAP
07C0
0FC0
0FC0
0FE0
07E0
07E0
07F8
07F8
01F8
01F8
01F8
39F8
39F8
FFF8
FFF8
FFF8
FFE0
FFE0
3FC0
ENDCHAR
STARTCHAR 004B
ENCODING 75
SWIDTH 1080 0
DWIDTH 18 0
BBX 16 19 1 -6
BITMAP
387C
FC7F
FC7F
FCFF
FCFC
FCFC
FFFC
FFFC
FFF8
3FF8
3FFC
3FFC
3FFF
3FFF
3F7F
3F7F
3F7F
1C1C
1C1C
ENDCHAR
STARTCHAR 004C
ENCODING 76
SWIDTH 780 0
DWIDTH 13 0
BBX 11 19 1 -6
BITMAP
0700
1F80
1F80
1F80
3F80
3F80
3F00
3F00
3F00
FF00
FC00
FC00
FC00
FF80
FFE0
FFE0
FFE0
3F80
3F80
ENDCHAR
STARTCHAR 004D
ENCODING 77
SWIDTH 1320 0
DWIDTH 22 0
BBX 20 19 1 -6
BITMAP
1F0F00
7F9F80
7F9F80
7FFF80
7FFF80
7FFFE0
7FFFE0
FFFFE0
FCFFE0
FC73E0
FC03F0
FC03F0
FF03F0
FF03F0
FF03F0
FF03F0
FF03F0
7C00E0
7C00E0
ENDCHAR
STARTCHAR 004E
ENCODING 78
SWIDTH 1260 0
DWIDTH 21 0
BBX 19 19 1 -6
BITMAP
1F0380
7F87E0
7F87E0
7F87E0
7F87E0
7FE7E0
7FE7E0
7FE7E0
FFE7E0
FFE7E0
FCFFE0
FCFF80
FCFF80
FCFF80
FC7F80
FC7F80
FC7F80
FC7F80
781F00
ENDCHAR
STARTCHAR 004F
ENCODING 79
SWIDTH 1140 0
DWIDTH 19 0
BBX 17 19 1 -6
BITMAP
03E000
1FFC00
1FFC00
3FFF00
3FFF00
3C7F00
F81F80
F81F80
F81F80
FC7F80
FC7F80
FFFF80
FFFF80
FFFF80
3FFF00
3FFF00
3FFF00
3FFF00
07F800
ENDCHAR
STARTCHAR 0050
ENCODING 80
SWIDTH 1080 0
DWIDTH 18 0
BBX 16 19 1 -6
BITMAP
3FC0
3FC0
FFF8
FFFE
FFFE
F8FE
F83F
F83F
FC3F
FFFF
FFFF
FFFE
FFFE
3FF8
3F00
3F00
3F00
1C00
1C00
ENDCHAR
STARTCHAR 0051
ENCODING 81
SWIDTH 1260 0
DWIDTH 21 0
BBX 19 19 1 -6
BITMAP
00FC00
07FF00
07FF00
1FFF80
3FFF80
3F8F80
3F0F80
3F0F80
FC6F80
FCFF80
FCFF80
FCFF00
FCFF00
FFFF80
FFFFE0
FFFFE0
3FFFE0
07E380
07E380
ENDCHAR
STARTCHAR 0052
ENCODING 82
SWIDTH 1140 0
DWIDTH 19 0
BBX 17 19 1 -6
BITMAP
07FC00
1FFF00
1FFF00
1FFF80
1FFF80
7F1F80
7C1F80
7C7F80
7C7F80
FFFF00
FFFF00
FFFC00
FFFC00
FFFF00
FDFF80
FDFF80
FC7F80
781F00
781F00
ENDCHAR
STARTCHAR 0053
ENCODING 83
SWIDTH 1080 0
DWIDTH 18 0
BBX 16 19 1 -6
BITMAP
0FF0
1FF8
1FF8
3FF8
3FF8
3E70
3F80
3F80
1FF0
0FF0
0FF8
31FF
31FF
FFFF
FFFF
FFFF
FFF8
FFF8
3FE0
ENDCHAR
STARTCHAR 0054
ENCODING 84
SWIDTH 1140 0
DWIDTH 19 0
BBX 18 19 0 -6
BITMAP
07FF00
3FFFC0
3FFFC0
FFFFC0
FFFF00
FFFF00
FFFF00
FFF800
39F800
01F800
01F800
01F800
01FE00
01FE00
01FE00
00FE00
00FE00
00F800
00F800
ENDCHAR
STARTCHAR 0055
ENCODING 85
SWIDTH 1140 0
DWIDTH 19 0
BBX 17 19 1 -6
BITMAP
7C0000
7F1C00
7F1C00
FF3F00
FF3F00
FF3F00
FC3F80
FC3F80
FC1F80
FC1F80
FC1F80
FF3F80
FF3F80
FFFF80
7FFF00
7FFF00
7FFF00
7FFF00
1FFC00
ENDCHAR
STARTCHAR 0056
ENCODING 86
SWIDTH 1140 0
DWIDTH 19 0
BBX 17 19 1 -6
BITMAP
7C0000
FF0700
FF0700
FF1F80
FF1F80
FF1F80
FF7F80
FF7F80
7F7F80
7F7F80
7F7F00
7FFF00
7FFC00
7FFC00
7FFC00
1FFC00
1FFC00
1FF800
07E000
ENDCHAR
STARTCHAR 0057
ENCODING 87
SWIDTH 1260 0
DWIDTH 21 0
BBX 19 19 1 -6
BITMAP
380380
FC07E0
FC07E0
FC07E0
FC07E0
FC07E0
FC07E0
FC07E0
FCE7E0
3CE7E0
3FFFE0
3FFF80
3FFF80
3FFF80
3FFF80
1FFF80
1FFF00
1FFF00
071C00
ENDCHAR
STARTCHAR 0058
ENCODING 88
SWIDTH 1260 0
DWIDTH 21 0
BBX 19 19 1 -6
BITMAP
1C0700
3F1F80
3F1F80
3FFF80
1FFF00
1FFF00
1FFF00
07FC00
1FFF00
1FFF00
3FFF80
3FFF80
FF1FE0
FF1FE0
FC07E0
FC07E0
FC07E0
380380
380380
ENDCHAR
STARTCHAR 0059
ENCODING 89
SWIDTH 1020 0
DWIDTH 17 0
BBX 16 19 0 -6
BITMAP
001C
3E3F
3E3F
FFBF
FFBF
FFFF
3FFF
3FFF
1FFC
1FFC
07FC
01F8
07F8
07F8
07E0
07E0
07E0
01C0
01C0
ENDCHAR
STARTCHAR 005A
ENCODING 90
SWIDTH 1080 0
DWIDTH 18 0
BBX 16 19 1 -6
BITMAP
1FE0
7FFC
7FFC
7FFC
1FFC
1FFC
1FFC
03F8
07F8
07F8
1FE0
7FE0
7F80
7FFC
FFFF
FFFF
FFFF
7FFC
7FFC
ENDCHAR
STARTCHAR 005C
ENCODING 92
SWIDTH 660 0
DWIDTH 11 0
BBX 10 19 0 -6
BITMAP
3800
F800
FE00
FE00
3E00
3E00
3E00
3E00
3E00
3E00
1F00
1F00
1F00
1F00
1FC0
1FC0
07C0
0700
0700
ENDCHAR
STARTCHAR 005F
ENCODING 95
SWIDTH 1080 0
DWIDTH 18 0
BBX 16 7 1 -6
BITMAP
7FFC
7FFC
FFFF
FFFF
FFFF
7FFC
7FFC
ENDCHAR
STARTCHAR 0061
ENCODING 97
SWIDTH 1140 0
DWIDTH 19 0
BBX 18 19 0 -6
BITMAP
00FC00
01FF00
01FF00
07FF00
07FF00
1FFFC0
1FFFC0
1FC7C0
3F07C0
3FF7C0
3FF7C0
FFFFC0
FFFFC0
FFFFC0
FE3FC0
FE3FC0
381FC0
381FC0
000700
ENDCHAR
STARTCHAR 0062
ENCODING 98
SWIDTH 1140 0
DWIDTH 19 0
BBX 17 19 1 -6
BITMAP
07E000
1FFC00
1FFC00
1FFE00
1FFE00
7F7E00
7C7E00
7C7E00
7FFC00
7FFC00
FFFE00
FC7F80
FC7F80
FC7F80
FFFF80
FFFF80
FFFF80
FFFF80
7FFC00
ENDCHAR
STARTCHAR 0063
ENCODING 99
SWIDTH 1020 0
DWIDTH 17 0
BBX 15 19 1 -6
BITMAP
03F0
1FFC
1FFC
7FFC
7FF0
7FF0
FFF0
FF00
FC00
FC00
FC00
FF1C
FF1C
7FFE
7FFE
7FFE
1FFE
1FFE
03F0
ENDCHAR
STARTCHAR 0064
ENCODING 100
SWIDTH 1140 0
DWIDTH 19 0
BBX 17 19 1 -6
BITMAP
3FE000
FFFC00
FFFC00
FFFF00
FFFF00
FFFF00
FFFF80
FC7F80
FC1F80
FC1F80
FF7F80
FF7F80
3F7F80
3FFF80
3FFF80
3FFF80
3FFF00
3FFF00
3FFC00
ENDCHAR
STARTCHAR 0065
ENCODING 101
SWIDTH 1080 0
DWIDTH 18 0
BBX 16 19 1 -6
BITMAP
07FC
1FFF
1FFF
1FFF
3FFC
3FFC
3FFC
3F00
3FF8
FFF8
FFF8
FFE0
FFE0
FE00
FFFC
FFFC
FFFC
3FF8
3FF8
ENDCHAR
STARTCHAR 0066
ENCODING 102
SWIDTH 1020 0
DWIDTH 17 0
BBX 15 19 1 -6
BITMAP
1FF0
3FFE
3FFE
3FFE
3FF0
3FF0
FFF0
FF00
FFF0
FFF0
FFF0
FFE0
FFE0
FC00
FC00
FC00
FC00
3800
3800
ENDCHAR
STARTCHAR 0067
ENCODING 103
SWIDTH 1140 0
DWIDTH 19 0
BBX 17 19 1 -6
BITMAP
03FC00
1FFF00
1FFF00
3FFF00
3FFC00
3FFC00
FFFC00
FF0000
FC3F00
FCFF80
FCFF80
FCFF80
FF1F80
FF1F80
3FFF00
3FFF00
3FFF00
3FFF00
07F800
ENDCHAR
STARTCHAR 0068
ENCODING 104
SWIDTH 1140 0
DWIDTH 19 0
BBX 17 19 1 -6
BITMAP
381E00
381E00
FC7E00
FC7F00
FC7F00
FC7F00
FFFF00
FFFF00
FFFF00
FFFF00
FFFF80
FFFF80
FFFF80
FC1F80
FC1F80
FC1F80
FC1F80
FC1F80
380700
ENDCHAR
STARTCHAR 0069
ENCODING 105
SWIDTH 600 0
DWIDTH 10 0
BBX 8 19 1 -6
BITMAP
38
FE
FE
FE
FE
FE
FE
FE
FE
FE
FE
FF
FF
FF
FF
FF
FF
FF
3E
ENDCHAR
STARTCHAR 006A
ENCODING 106
SWIDTH 840 0
DWIDTH 14 0
BBX 13 19 0 -6
BITMAP
07C0
0FC0
0FC0
0FE0
07E0
07E0
07F8
07F8
01F8
01F8
01F8
39F8
39F8
FFF8
FFF8
FFF8
FFE0
FFE0
3FC0
ENDCHAR
STARTCHAR 006B
ENCODING 107
SWIDTH 1080 0
DWIDTH 18 0
BBX 16 19 1 -6
BITMAP
387C
FC7F
FC7F
FCFF
FCFC
FCFC
FFFC
FFFC
FFF8
3FF8
3FFC
3FFC
3FFF
3FFF
3F7F
3F7F
3F7F
1C1C
1C1C
ENDCHAR
STARTCHAR 006C
ENCODING 108
SWIDTH 780 0
DWIDTH 13 0
BBX 11 19 1 -6
BITMAP
0700
1F80
1F80
1F80
3F80
3F80
3F00
3F00
3F00
FF00
FC00
FC00
FC00
FF80
FFE0
FFE0
FFE0
3F80
3F80
ENDCHAR
STARTCHAR 006D
ENCODING 109
SWIDTH 1320 0
DWIDTH 22 0
BBX 20 19 1 -6
BITMAP
1F0F00
7F9F80
7F9F80
7FFF80
7FFF80
7FFFE0
7FFFE0
FFFFE0
FCFFE0
FC73E0
FC03F0
FC03F0
FF03F0
FF03F0
FF03F0
FF03F0
FF03F0
7C00E0
7C00E0
ENDCHAR
STARTCHAR 006E
ENCODING 110
SWIDTH 1260 0
DWIDTH 21 0
BBX 19 19 1 -6
BITMAP
1F0380
7F87E0
7F87E0
7F87E0
7F87E0
7FE7E0
7FE7E0
7FE7E0
FFE7E0
FFE7E0
FCFFE0
FCFF80
FCFF80
FCFF80
FC7F80
FC7F80
FC7F80
FC7F80
781F00
ENDCHAR
STARTCHAR 006F
ENCODING 111
SWIDTH 1140 0
DWIDTH 19 0
BBX 17 19 1 -6
BITMAP
03E000
1FFC00
1FFC00
3FFF00
3FFF00
3C7F00
F81F80
F81F80
F81F80
FC7F80
FC7F80
FFFF80
FFFF80
FFFF80
3FFF00
3FFF00
3FFF00
3FFF00
07F800
ENDCHAR
STARTCHAR 0070
ENCODING 112
SWIDTH 1080 0
DWIDTH 18 0
BBX 16 19 1 -6
BITMAP
3FC0
3FC0
FFF8
FFFE
FFFE
F8FE
F83F
F83F
FC3F
FFFF
FFFF
FFFE
FFFE
3FF8
3F00
3F00
3F00
1C00
1C00
ENDCHAR
STARTCHAR 0071
ENCODING 113
SWIDTH 1260 0
DWIDTH 21 0
BBX 19 19 1 -6
BITMAP
00FC00
07FF00
07FF00
1FFF80
3FFF80
3F8F80
3F0F80
3F0F80
FC6F80
FCFF80
FCFF80
FCFF00
FCFF00
FFFF80
FFFFE0
FFFFE0
3FFFE0
07E380
07E380
ENDCHAR
STARTCHAR 0072
ENCODING 114
SWIDTH 1140 0
DWIDTH 19 0
BBX 17 19 1 -6
BITMAP
07FC00
1FFF00
1FFF00
1FFF80
1FFF80
7F1F80
7C1F80
7C7F80
7C7F80
FFFF00
FFFF00
FFFC00
FFFC00
FFFF00
FDFF80
FDFF80
FC7F80
781F00
781F00
ENDCHAR
STARTCHAR 0073
ENCODING 115
SWIDTH 1080 0
DWIDTH 18 0
BBX 16 19 1 -6
BITMAP
0FF0
1FF8
1FF8
3FF8
3FF8
3E70
3F80
3F80
1FF0
0FF0
0FF8
31FF
31FF
FFFF
FFFF
FFFF
FFF8
FFF8
3FE0
ENDCHAR
STARTCHAR 0074
ENCODING 116
SWIDTH 1140 0
DWIDTH 19 0
BBX 18 19 0 -6
BITMAP
07FF00
3FFFC0
3FFFC0
FFFFC0
FFFF00
FFFF00
FFFF00
FFF800
39F800
01F800
01F800
01F800
01FE00
01FE00
01FE00
00FE00
00FE00
00F800
00F800
ENDCHAR
STARTCHAR 0075
ENCODING 117
SWIDTH 1140 0
DWIDTH 19 0
BBX 17 19 1 -6
BITMAP
7C0000
7F1C00
7F1C00
FF3F00
FF3F00
FF3F00
FC3F80
FC3F80
FC1F80
FC1F80
FC1F80
FF3F80
FF3F80
FFFF80
7FFF00
7FFF00
7FFF00
7FFF00
1FFC00
ENDCHAR
STARTCHAR 0076
ENCODING 118
SWIDTH 1140 0
DWIDTH 19 0
BBX 17 19 1 -6
BITMAP
7C0000
FF0700
FF0700
FF1F80
FF1F80
FF1F80
FF7F80
FF7F80
7F7F80
7F7F80
7F7F00
7FFF00
7FFC00
7FFC00
7FFC00
1FFC00
1FFC00
1FF800
07E000
ENDCHAR
STARTCHAR 0077
ENCODING 119
SWIDTH 1260 0
DWIDTH 21 0
BBX 19 19 1 -6
BITMAP
380380
FC07E0
FC07E0
FC07E0
FC07E0
FC07E0
FC07E0
FC07E0
FCE7E0
3CE7E0
3FFFE0
3FFF80
3FFF80
3FFF80
3FFF80
1FFF80
1FFF00
1FFF00
071C00
ENDCHAR
STARTCHAR 0078
ENCODING 120
SWIDTH 1260 0
DWIDTH 21 0
BBX 19 19 1 -6
BITMAP
1C0700
3F1F80
3F1F80
3FFF80
1FFF00
1FFF00
1FFF00
07FC00
1FFF00
1FFF00
3FFF80
3FFF80
FF1FE0
FF1FE0
FC07E0
FC07E0
FC07E0
380380
380380
ENDCHAR
STARTCHAR 0079
ENCODING 121
SWIDTH 1020 0
DWIDTH 17 0
BBX 16 19 0 -6
BITMAP
001C
3E3F
3E3F
FFBF
FFBF
FFFF
3FFF
3FFF
1FFC
1FFC
07FC
01F8
07F8
07F8
07E0
07E0
07E0
01C0
01C0
ENDCHAR
STARTCHAR 007A
ENCODING 122
SWIDTH 1080 0
DWIDTH 18 0
BBX 16 19 1 -6
BITMAP
1FE0
7FFC
7FFC
7FFC
1FFC
1FFC
1FFC
03F8
07F8
07F8
1FE0
7FE0
7F80
7FFC
FFFF
FFFF
FFFF
7FFC
7FFC
ENDCHAR
ENDFONT
